<svg fill="#000000" xmlns="http://www.w3.org/2000/svg" xmlns:xlink="http://www.w3.org/1999/xlink" version="1.1" x="0px" y="0px" viewBox="0 0 100 100" style="enable-background:new 0 0 100 100;" xml:space="preserve"><style type="text/css">
.st0{fill:none;}
</style><g><g><path class="st0" d="M63.9,85.1l0.5-3.7c-0.9,0.2-1.7,0.3-2.3,0.3c-1.4,0-2.4-0.6-3.2-1c-0.2-0.1-0.6-0.3-0.7-0.3    c-0.2,0-0.7,0.2-1,0.4c-0.8,0.4-1.7,0.8-2.9,0.8c-1.1,0-2.1-0.4-2.9-0.8c-0.5-0.2-1-0.4-1.3-0.4c-0.2,0-0.4,0.1-0.8,0.3    c-0.7,0.4-1.8,0.9-3.3,0.9c-1.4,0-2.5-0.4-3.4-0.8c-0.6-0.2-1-0.4-1.4-0.4c-0.2,0-0.4,0.1-1,0.4c-0.7,0.4-1.7,0.9-3.1,0.9    c-0.5,0-1-0.1-1.6-0.2l0.5,3.7H63.9z"/><path d="M84.1,2.5c-1.4-0.2-2.6,0.8-2.8,2.2L71,92.5H29.2L18.7,4.7c-0.2-1.4-1.4-2.4-2.8-2.2c-1.4,0.2-2.4,1.4-2.2,2.8l10.7,90    c0.2,1.3,1.2,2.2,2.5,2.2h46.3c1.3,0,2.3-1,2.5-2.2l10.5-90C86.4,3.9,85.5,2.7,84.1,2.5z"/><path d="M31.4,88c0.2,1.2,1.2,2.2,2.5,2.2h32.2c1.3,0,2.3-0.9,2.5-2.2l1.4-9.7c0.1-0.9-0.2-1.7-0.9-2.3s-1.6-0.7-2.4-0.4    c-1.8,0.6-4,1.2-4.5,1.2c-0.1,0-0.5-0.2-0.7-0.4c-0.7-0.4-1.7-1-3.1-1c-1.3,0-2.4,0.5-3.2,0.9c-0.3,0.1-0.7,0.3-0.8,0.3    c-0.1,0-0.6-0.2-0.9-0.3c-0.8-0.4-2-0.9-3.4-0.9c-1.4,0-2.4,0.5-3.1,0.9c-0.6,0.3-0.8,0.4-1.1,0.4c-0.4,0-0.8-0.2-1.5-0.4    c-0.9-0.4-1.9-0.8-3.3-0.8c-1.5,0-2.6,0.6-3.3,0.9c-0.4,0.2-0.6,0.3-0.8,0.3c-0.6,0-2.4-0.5-3.6-1.1c-0.8-0.3-1.8-0.2-2.5,0.3    c-0.7,0.6-1.1,1.4-1,2.3L31.4,88z M37.1,81.7c1.4,0,2.4-0.5,3.1-0.9c0.5-0.3,0.7-0.4,1-0.4c0.4,0,0.8,0.2,1.4,0.4    c0.9,0.4,2,0.8,3.4,0.8c1.5,0,2.6-0.5,3.3-0.9c0.5-0.2,0.7-0.3,0.8-0.3c0.3,0,0.8,0.2,1.3,0.4c0.8,0.3,1.7,0.8,2.9,0.8    c1.2,0,2.2-0.5,2.9-0.8c0.4-0.2,0.9-0.4,1-0.4c0.1,0,0.5,0.2,0.7,0.3c0.7,0.4,1.8,1,3.2,1c0.6,0,1.5-0.1,2.3-0.3l-0.5,3.7H36.1    l-0.5-3.7C36.1,81.6,36.6,81.7,37.1,81.7z"/></g></g></svg>
